<svg width="24" height="24" viewBox="0 0 24 24" fill="none" xmlns="http://www.w3.org/2000/svg">
<path fill-rule="evenodd" clip-rule="evenodd" d="M6.37124 4.31479C7.86926 2.83176 9.89206 1.99989 12 2C14.1079 1.99989 16.1307 2.83176 17.6288 4.31479C19.1268 5.79782 19.9789 7.81216 20 9.92C20 15.4 13 21.5 12.65 21.76C12.4689 21.9149 12.2384 22.0001 12 22.0001C11.7616 22.0001 11.5311 21.9149 11.35 21.76L11.3484 21.7586C11.0253 21.4787 4 15.3904 4 9.92C4.02108 7.81216 4.87323 5.79782 6.37124 4.31479ZM6 9.92C6 13.65 10.33 18.06 12 19.65C13.67 18.06 18 13.62 18 9.92C18 8.3287 17.3679 6.80258 16.2426 5.67736C15.1174 4.55214 13.5913 3.92 12 3.92C10.4087 3.92 8.88258 4.55214 7.75736 5.67736C6.63214 6.80258 6 8.3287 6 9.92ZM10.0555 6.58986C10.6311 6.20527 11.3078 6 12 6C12.9283 6 13.8185 6.36875 14.4749 7.02513C15.1313 7.6815 15.5 8.57174 15.5 9.5C15.5 10.1922 15.2947 10.8689 14.9101 11.4445C14.5256 12.0201 13.9789 12.4687 13.3394 12.7336C12.6999 12.9985 11.9961 13.0678 11.3172 12.9327C10.6383 12.7977 10.0146 12.4644 9.52513 11.9749C9.03564 11.4854 8.7023 10.8617 8.56725 10.1828C8.4322 9.50388 8.50152 8.80015 8.76642 8.16061C9.03133 7.52107 9.47993 6.97444 10.0555 6.58986ZM11.1666 10.7472C11.4133 10.912 11.7033 11 12 11C12.3978 11 12.7794 10.842 13.0607 10.5607C13.342 10.2794 13.5 9.89782 13.5 9.5C13.5 9.20333 13.412 8.91332 13.2472 8.66665C13.0824 8.41997 12.8481 8.22771 12.574 8.11418C12.2999 8.00065 11.9983 7.97094 11.7074 8.02882C11.4164 8.0867 11.1491 8.22956 10.9393 8.43934C10.7296 8.64912 10.5867 8.91639 10.5288 9.20736C10.4709 9.49834 10.5007 9.79994 10.6142 10.074C10.7277 10.3481 10.92 10.5824 11.1666 10.7472Z" fill="#CE0031"/>
</svg>
