<svg width="18" height="18" viewBox="0 0 18 18" fill="none" xmlns="http://www.w3.org/2000/svg">
<path fill-rule="evenodd" clip-rule="evenodd" d="M9 4.37907C8.08607 4.37907 7.19265 4.65008 6.43274 5.15783C5.67284 5.66559 5.08056 6.38728 4.73081 7.23165C4.38106 8.07601 4.28955 9.00513 4.46785 9.9015C4.64615 10.7979 5.08625 11.6213 5.7325 12.2675C6.37875 12.9137 7.20213 13.3539 8.0985 13.5322C8.99487 13.7105 9.92399 13.6189 10.7684 13.2692C11.6127 12.9194 12.3344 12.3272 12.8422 11.5673C13.3499 10.8073 13.6209 9.91394 13.6209 9C13.6213 8.39307 13.502 7.79201 13.2699 7.23121C13.0378 6.6704 12.6975 6.16085 12.2683 5.73168C11.8392 5.30252 11.3296 4.96215 10.7688 4.73006C10.208 4.49797 9.60693 4.3787 9 4.37907ZM9 12.0009C8.40647 12.0009 7.82627 11.8249 7.33277 11.4952C6.83927 11.1654 6.45463 10.6968 6.2275 10.1484C6.00036 9.60006 5.94093 8.99667 6.05673 8.41455C6.17252 7.83242 6.45833 7.29771 6.87802 6.87802C7.2977 6.45833 7.83242 6.17252 8.41455 6.05673C8.99667 5.94094 9.60006 6.00036 10.1484 6.2275C10.6968 6.45463 11.1654 6.83927 11.4952 7.33277C11.8249 7.82627 12.0009 8.40647 12.0009 9C12.0009 9.7959 11.6848 10.5592 11.122 11.122C10.5592 11.6848 9.7959 12.0009 9 12.0009Z" fill="black"/>
<path d="M14.8837 4.19625C14.8837 4.79272 14.4002 5.27625 13.8038 5.27625C13.2073 5.27625 12.7238 4.79272 12.7238 4.19625C12.7238 3.59979 13.2073 3.11625 13.8038 3.11625C14.4002 3.11625 14.8837 3.59979 14.8837 4.19625Z" fill="black"/>
<path fill-rule="evenodd" clip-rule="evenodd" d="M9 0C6.55594 0 6.24938 0 5.29031 0.0534377C4.53969 0.0678406 3.79695 0.209541 3.09375 0.4725C2.49876 0.70345 1.9584 1.0558 1.5071 1.5071C1.0558 1.9584 0.70345 2.49876 0.4725 3.09375C0.210787 3.7934 0.0691071 4.53223 0.0534377 5.27906C0 6.24938 0 6.55594 0 9C0 11.4441 0 11.7506 0.0534377 12.7097C0.0678406 13.4603 0.209541 14.203 0.4725 14.9062C0.70345 15.5012 1.0558 16.0416 1.5071 16.4929C1.9584 16.9442 2.49876 17.2966 3.09375 17.5275C3.7934 17.7892 4.53223 17.9309 5.27906 17.9466C6.24938 18 6.55594 18 9 18C11.4441 18 11.7506 18 12.7097 17.9466C13.4603 17.9322 14.203 17.7905 14.9062 17.5275C15.5012 17.2966 16.0416 16.9442 16.4929 16.4929C16.9442 16.0416 17.2966 15.5012 17.5275 14.9062C17.7892 14.2066 17.9309 13.4678 17.9466 12.7209C18 11.7506 18 11.4441 18 9C18 6.55594 18 6.24938 17.9466 5.29031C17.9322 4.53969 17.7905 3.79695 17.5275 3.09375C17.2966 2.49876 16.9442 1.9584 16.4929 1.5071C16.0416 1.0558 15.5012 0.70345 14.9062 0.4725C14.2066 0.210787 13.4678 0.0691071 12.7209 0.0534377C11.7506 0 11.4441 0 9 0ZM9 1.62281C11.4019 1.62281 11.6888 1.62281 12.6366 1.67344C13.207 1.68068 13.772 1.78531 14.3072 1.98281C14.6979 2.13184 15.0532 2.36096 15.3501 2.65546C15.647 2.94995 15.879 3.3033 16.0312 3.69281C16.2288 4.22801 16.3334 4.79301 16.3406 5.36344C16.3828 6.31125 16.3913 6.59812 16.3913 9C16.3913 11.4019 16.3913 11.6888 16.3406 12.6366C16.3334 13.207 16.2288 13.772 16.0312 14.3072C15.8807 14.6993 15.6494 15.0554 15.3524 15.3524C15.0554 15.6494 14.6993 15.8807 14.3072 16.0312C13.772 16.2288 13.207 16.3334 12.6366 16.3406C11.6888 16.3828 11.4019 16.3913 9 16.3913C6.59812 16.3913 6.31125 16.3913 5.36344 16.3406C4.79301 16.3334 4.22801 16.2288 3.69281 16.0312C3.30467 15.8806 2.95217 15.6507 2.65775 15.3563C2.36334 15.0619 2.13348 14.7094 1.98281 14.3212C1.78852 13.7808 1.68863 13.2109 1.6875 12.6366C1.64531 11.6888 1.63687 11.4019 1.63687 9C1.63687 6.59812 1.63687 6.31125 1.6875 5.36344C1.69474 4.79301 1.79937 4.22801 1.99688 3.69281C2.14754 3.30467 2.37741 2.95217 2.67182 2.65775C2.96623 2.36334 3.31873 2.13348 3.70688 1.98281C4.23846 1.79167 4.79855 1.69182 5.36344 1.6875C6.31125 1.64531 6.59812 1.63687 9 1.63687V1.62281Z" fill="black"/>
</svg>
