<svg width="87" height="78" viewBox="0 0 87 78" fill="none" xmlns="http://www.w3.org/2000/svg">
<path d="M42.3727 30.4399L42.3638 31.3395C42.1025 31.1495 41.8501 31.0545 41.6066 31.0545C41.3691 31.0545 41.1761 31.1406 41.0277 31.3128C40.8851 31.4791 40.8139 31.681 40.8139 31.9185C40.8139 32.1917 40.897 32.4351 41.0633 32.6489L41.7403 33.3882C42.0847 33.7386 42.3281 34.0504 42.4707 34.3235C42.6191 34.5907 42.6934 34.9352 42.6934 35.3568C42.6934 35.8497 42.5508 36.2653 42.2658 36.6038C41.9808 36.9423 41.5977 37.1115 41.1167 37.1115C40.7308 37.1115 40.4041 37.0046 40.1369 36.7909V35.8912C40.4517 36.1228 40.7456 36.2386 41.0188 36.2386C41.28 36.2386 41.476 36.1495 41.6066 35.9714C41.7373 35.7932 41.8026 35.5706 41.8026 35.3033C41.8026 35.0599 41.7373 34.8312 41.6066 34.6175C41.4819 34.4037 41.3246 34.2107 41.1346 34.0385C40.9505 33.8663 40.7664 33.6881 40.5823 33.504C40.3982 33.3199 40.2408 33.0943 40.1102 32.8271C39.9855 32.5598 39.9231 32.2629 39.9231 31.9363C39.9231 31.4375 40.0538 31.0278 40.3151 30.7071C40.5764 30.3805 40.9475 30.2172 41.4285 30.2172C41.8085 30.2172 42.1233 30.2914 42.3727 30.4399ZM44.8714 37.0225H43.9806V30.3063H45.0495C45.2455 30.3063 45.4058 30.3122 45.5305 30.3241C45.6611 30.336 45.8126 30.3775 45.9848 30.4488C46.1629 30.5141 46.3025 30.6062 46.4034 30.7249C46.5103 30.8437 46.6024 31.0218 46.6796 31.2594C46.7568 31.491 46.7954 31.773 46.7954 32.1056C46.7954 32.8003 46.6439 33.3051 46.3411 33.6198C46.0442 33.9286 45.5543 34.0711 44.8714 34.0474V37.0225ZM44.9961 31.0634H44.8714V33.2903C45.2395 33.314 45.4949 33.2338 45.6374 33.0498C45.7799 32.8657 45.8512 32.5747 45.8512 32.1768C45.8512 31.4345 45.5661 31.0634 44.9961 31.0634ZM47.9684 30.3063H50.3645V31.0812H48.8592V33.1923H50.2042V33.9672H48.8592V36.2475H50.3645V37.0225H47.9684V30.3063ZM54.1918 30.4132V31.2237C53.9662 31.1109 53.7762 31.0545 53.6218 31.0545C53.4258 31.0545 53.2506 31.099 53.0962 31.1881C52.9478 31.2712 52.829 31.3989 52.7399 31.5711C52.6509 31.7374 52.5796 31.9007 52.5262 32.061C52.4727 32.2214 52.4341 32.4203 52.4104 32.6578C52.3925 32.8954 52.3807 33.0794 52.3747 33.2101C52.3688 33.3407 52.3658 33.507 52.3658 33.7089C52.3658 35.4191 52.7963 36.2742 53.6574 36.2742C53.8415 36.2742 54.0196 36.2297 54.1918 36.1406V36.9245C53.9959 37.0492 53.7583 37.1115 53.4792 37.1115C52.1075 37.1115 51.4216 35.9981 51.4216 33.7713C51.4216 31.4019 52.0867 30.2172 53.4169 30.2172C53.7079 30.2172 53.9662 30.2825 54.1918 30.4132ZM55.4134 30.3063H56.3042V35.2321C56.3042 35.6359 56.3576 35.912 56.4645 36.0605C56.5714 36.203 56.7258 36.2742 56.9277 36.2742C57.2068 36.2742 57.3879 36.2 57.471 36.0516C57.5542 35.8972 57.5987 35.6567 57.6046 35.3301V30.3063H58.4954V35.0717C58.4954 35.2499 58.4924 35.3835 58.4865 35.4726C58.4865 35.5616 58.4776 35.6923 58.4597 35.8645C58.4419 36.0308 58.4152 36.1614 58.3796 36.2564C58.3439 36.3455 58.2875 36.4554 58.2103 36.586C58.1331 36.7107 58.0411 36.8057 57.9342 36.871C57.8273 36.9364 57.6907 36.9928 57.5245 37.0403C57.3582 37.0878 57.1682 37.1115 56.9544 37.1115C56.6812 37.1115 56.4467 37.0729 56.2507 36.9957C56.0547 36.9185 55.9033 36.8206 55.7964 36.7018C55.6895 36.583 55.6064 36.4227 55.547 36.2208C55.4876 36.0189 55.449 35.8259 55.4312 35.6418C55.4193 35.4518 55.4134 35.2172 55.4134 34.9381V30.3063ZM60.1058 30.3063H60.9965V36.2475H62.493V37.0225H60.1058V30.3063ZM64.5422 30.3063H65.2459L66.6889 37.0225H65.7892L65.5398 35.7131H64.2037L63.9543 37.0225H63.0814L64.5422 30.3063ZM65.4062 35.0183L65.2281 34.0474L64.8896 31.6068H64.8718L64.3373 35.0183H65.4062ZM66.9022 30.3063H69.8506V31.0812H68.844V37.0225H67.9533V31.0812H66.9022V30.3063ZM71.7856 30.3063V37.0225H70.8949V30.3063H71.7856ZM72.9229 30.3063H73.8137L74.5797 35.3568H74.5975L74.6421 34.9381L74.9984 32.6756L75.4081 30.3063H76.2543L74.936 37.0225H74.2234L72.9229 30.3063ZM77.383 30.3063H79.7791V31.0812H78.2738V33.1923H79.6188V33.9672H78.2738V36.2475H79.7791V37.0225H77.383V30.3063ZM39.7183 39.3063H42.6666V40.0812H41.6601V46.0225H40.7694V40.0812H39.7183V39.3063ZM44.6462 39.3508C44.8363 39.2617 45.05 39.2172 45.2876 39.2172C45.5251 39.2172 45.7389 39.2617 45.9289 39.3508C46.1189 39.4399 46.2733 39.5497 46.3921 39.6804C46.5108 39.811 46.6118 39.9862 46.6949 40.2059C46.784 40.4197 46.8493 40.6157 46.8909 40.7938C46.9325 40.972 46.9651 41.1946 46.9889 41.4619C47.0126 41.7291 47.0245 41.9369 47.0245 42.0854C47.0304 42.2338 47.0334 42.4268 47.0334 42.6644C47.0334 42.9019 47.0304 43.0949 47.0245 43.2433C47.0245 43.3918 47.0126 43.5996 46.9889 43.8669C46.9651 44.1341 46.9325 44.3568 46.8909 44.5349C46.8493 44.7131 46.784 44.912 46.6949 45.1317C46.6118 45.3455 46.5108 45.5177 46.3921 45.6483C46.2733 45.779 46.1189 45.8888 45.9289 45.9779C45.7389 46.067 45.5251 46.1115 45.2876 46.1115C45.05 46.1115 44.8363 46.067 44.6462 45.9779C44.4562 45.8888 44.3018 45.779 44.183 45.6483C44.0643 45.5177 43.9604 45.3455 43.8713 45.1317C43.7882 44.912 43.7258 44.7131 43.6842 44.5349C43.6427 44.3568 43.61 44.1341 43.5862 43.8669C43.5625 43.5996 43.5477 43.3918 43.5417 43.2433C43.5417 43.0949 43.5417 42.9019 43.5417 42.6644C43.5417 42.4268 43.5417 42.2338 43.5417 42.0854C43.5477 41.9369 43.5625 41.7291 43.5862 41.4619C43.61 41.1946 43.6427 40.972 43.6842 40.7938C43.7258 40.6157 43.7882 40.4197 43.8713 40.2059C43.9604 39.9862 44.0643 39.811 44.183 39.6804C44.3018 39.5497 44.4562 39.4399 44.6462 39.3508ZM45.9289 40.7315C45.822 40.2802 45.6082 40.0545 45.2876 40.0545C44.9669 40.0545 44.7531 40.2802 44.6462 40.7315C44.5393 41.1768 44.4859 41.8211 44.4859 42.6644C44.4859 43.5076 44.5393 44.1549 44.6462 44.6062C44.7531 45.0516 44.9669 45.2742 45.2876 45.2742C45.6082 45.2742 45.822 45.0516 45.9289 44.6062C46.0358 44.1549 46.0892 43.5076 46.0892 42.6644C46.0892 41.8211 46.0358 41.1768 45.9289 40.7315ZM48.4816 39.3063H49.3724V44.2321C49.3724 44.6359 49.4258 44.912 49.5327 45.0605C49.6396 45.203 49.794 45.2742 49.9959 45.2742C50.275 45.2742 50.4561 45.2 50.5392 45.0516C50.6224 44.8972 50.6669 44.6567 50.6729 44.3301V39.3063H51.5636V44.0717C51.5636 44.2499 51.5606 44.3835 51.5547 44.4726C51.5547 44.5616 51.5458 44.6923 51.528 44.8645C51.5102 45.0308 51.4834 45.1614 51.4478 45.2564C51.4122 45.3455 51.3558 45.4554 51.2786 45.586C51.2014 45.7107 51.1093 45.8057 51.0024 45.871C50.8955 45.9364 50.759 45.9928 50.5927 46.0403C50.4264 46.0878 50.2364 46.1115 50.0226 46.1115C49.7495 46.1115 49.5149 46.0729 49.3189 45.9957C49.123 45.9185 48.9715 45.8206 48.8647 45.7018C48.7578 45.583 48.6746 45.4227 48.6152 45.2208C48.5559 45.0189 48.5173 44.8259 48.4995 44.6418C48.4876 44.4518 48.4816 44.2172 48.4816 43.9381V39.3063ZM53.174 46.0225V39.3063H54.2429C54.4151 39.3063 54.5576 39.3122 54.6705 39.3241C54.7833 39.33 54.9258 39.3657 55.098 39.431C55.2762 39.4904 55.4157 39.5765 55.5167 39.6893C55.6176 39.8021 55.7067 39.9743 55.7839 40.2059C55.867 40.4316 55.9086 40.7047 55.9086 41.0254C55.9086 41.2689 55.8849 41.5034 55.8373 41.7291C55.7898 41.9547 55.6919 42.1715 55.5434 42.3793C55.4009 42.5872 55.2138 42.7119 54.9822 42.7534L56.2204 46.0225H55.294L54.0826 42.7356H54.0648V46.0225H53.174ZM54.0648 42.2813C54.6645 42.3229 54.9644 41.9696 54.9644 41.2214C54.9644 40.8413 54.9139 40.5533 54.813 40.3573C54.718 40.1554 54.5161 40.0575 54.2073 40.0634H54.0648V42.2813ZM58.3048 39.3063V46.0225H57.4141V39.3063H58.3048ZM61.9986 39.4399L61.9897 40.3395C61.7284 40.1495 61.476 40.0545 61.2325 40.0545C60.995 40.0545 60.802 40.1406 60.6535 40.3128C60.511 40.4791 60.4398 40.681 60.4398 40.9185C60.4398 41.1917 60.5229 41.4351 60.6892 41.6489L61.3661 42.3882C61.7106 42.7386 61.954 43.0504 62.0965 43.3235C62.245 43.5907 62.3192 43.9352 62.3192 44.3568C62.3192 44.8497 62.1767 45.2653 61.8917 45.6038C61.6066 45.9423 61.2236 46.1115 60.7426 46.1115C60.3566 46.1115 60.03 46.0046 59.7628 45.7909V44.8912C60.0775 45.1228 60.3715 45.2386 60.6446 45.2386C60.9059 45.2386 61.1019 45.1495 61.2325 44.9714C61.3632 44.7932 61.4285 44.5706 61.4285 44.3033C61.4285 44.0599 61.3632 43.8312 61.2325 43.6175C61.1078 43.4037 60.9505 43.2107 60.7604 43.0385C60.5763 42.8663 60.3923 42.6881 60.2082 42.504C60.0241 42.3199 59.8667 42.0943 59.7361 41.8271C59.6114 41.5598 59.549 41.2629 59.549 40.9363C59.549 40.4375 59.6797 40.0278 59.9409 39.7071C60.2022 39.3805 60.5734 39.2172 61.0544 39.2172C61.4344 39.2172 61.7492 39.2914 61.9986 39.4399ZM63.8292 39.3063H64.5952L65.5483 44.1519H65.5661L65.5928 43.8758L65.8601 42.2635L66.439 39.3063H67.2229L67.8464 46.0225H66.9735L66.8132 43.5195L66.7597 42.2724L66.7419 41.3906H66.7241L66.5727 42.3526L65.8779 46.0225H65.2633L64.3992 41.3906H64.3814L64.1231 46.0225H63.2769L63.8292 39.3063ZM40.9119 55.0225H40.2884L41.3483 48.3063H42.0431C42.1856 48.3063 42.3044 48.3092 42.3994 48.3152C42.5004 48.3211 42.6102 48.333 42.729 48.3508C42.8477 48.3627 42.9457 48.3864 43.0229 48.4221C43.1061 48.4577 43.1892 48.5052 43.2723 48.5646C43.3614 48.618 43.4267 48.6893 43.4683 48.7784C43.5158 48.8615 43.5544 48.9625 43.5841 49.0812C43.6197 49.2 43.6375 49.3425 43.6375 49.5088C43.6375 49.6691 43.6197 49.8502 43.5841 50.0521C43.4831 50.6994 43.2842 51.1537 42.9873 51.415C42.6904 51.6762 42.2213 51.8069 41.5799 51.8069H41.4196L40.9119 55.0225ZM41.8828 48.8763L41.5087 51.2368H41.7492C41.9689 51.2368 42.147 51.219 42.2836 51.1834C42.4202 51.1418 42.53 51.0705 42.6132 50.9696C42.7023 50.8627 42.7676 50.7439 42.8091 50.6133C42.8567 50.4767 42.9012 50.2897 42.9428 50.0521C43.02 49.5889 42.9932 49.2772 42.8626 49.1168C42.732 48.9565 42.4469 48.8763 42.0075 48.8763H41.8828ZM44.1043 55.0225H43.4808L44.5407 48.3063H45.2088C45.3335 48.3063 45.4374 48.3092 45.5205 48.3152C45.6037 48.3152 45.7017 48.3211 45.8145 48.333C45.9273 48.3449 46.0194 48.3627 46.0906 48.3864C46.1678 48.4102 46.248 48.4429 46.3311 48.4844C46.4202 48.5201 46.4885 48.5676 46.536 48.6269C46.5894 48.6863 46.6399 48.7606 46.6874 48.8496C46.7409 48.9328 46.7765 49.0307 46.7943 49.1436C46.8121 49.2505 46.821 49.3781 46.821 49.5266C46.821 49.675 46.8062 49.8383 46.7765 50.0165C46.7409 50.254 46.6904 50.4648 46.6251 50.6489C46.5657 50.833 46.4796 51.0112 46.3668 51.1834C46.2539 51.3556 46.1025 51.4922 45.9125 51.5931C45.7225 51.6881 45.4968 51.7386 45.2355 51.7445L46.2064 55.0225H45.5473L44.6387 51.7356H44.6209L44.1043 55.0225ZM45.0752 48.8763L44.7011 51.2279H44.9238C45.3454 51.2279 45.6334 51.1477 45.7878 50.9874C45.9422 50.8211 46.058 50.5064 46.1352 50.0432C46.1589 49.8651 46.1708 49.7136 46.1708 49.5889C46.1767 49.4642 46.1649 49.3603 46.1352 49.2772C46.1114 49.1881 46.0758 49.1168 46.0283 49.0634C45.9867 49.01 45.9214 48.9714 45.8323 48.9476C45.7432 48.9179 45.6512 48.9001 45.5562 48.8942C45.4671 48.8823 45.3483 48.8763 45.1999 48.8763H45.0752ZM48.5567 48.3063L47.4967 55.0225H46.8732L47.9332 48.3063H48.5567ZM51.9276 48.5735L51.8028 49.3663C51.6722 49.194 51.5356 49.0604 51.3931 48.9654C51.2565 48.8704 51.0903 48.8229 50.8943 48.8229C50.5974 48.8229 50.345 48.9298 50.1372 49.1436C49.9293 49.3514 49.8016 49.6068 49.7541 49.9096C49.7423 49.9868 49.7334 50.061 49.7274 50.1323C49.7274 50.2036 49.7363 50.2718 49.7541 50.3372C49.772 50.4025 49.7838 50.4619 49.7898 50.5153C49.8016 50.5628 49.8284 50.6192 49.8699 50.6846C49.9115 50.7439 49.9412 50.7914 49.959 50.8271C49.9828 50.8627 50.0243 50.9102 50.0837 50.9696C50.1431 51.029 50.1847 51.0705 50.2084 51.0943C50.2322 51.1121 50.2826 51.1537 50.3598 51.219C50.437 51.2784 50.4846 51.317 50.5024 51.3348C50.5202 51.3467 50.5736 51.3853 50.6627 51.4506C50.823 51.5753 50.9477 51.6822 51.0368 51.7713C51.1259 51.8603 51.2209 51.9791 51.3218 52.1276C51.4287 52.2701 51.497 52.4304 51.5267 52.6086C51.5564 52.7867 51.5534 52.9856 51.5178 53.2053C51.4406 53.722 51.215 54.1703 50.8408 54.5504C50.4727 54.9245 50.0362 55.1115 49.5315 55.1115C49.1217 55.1115 48.7862 54.9987 48.5249 54.7731L48.6585 53.9625C48.9436 54.3247 49.2761 54.5058 49.6562 54.5058C49.9709 54.5058 50.2381 54.39 50.4578 54.1584C50.6775 53.9209 50.8112 53.6418 50.8587 53.3211C50.8884 53.1489 50.8884 52.9916 50.8587 52.8491C50.8349 52.7065 50.7726 52.5729 50.6716 52.4482C50.5766 52.3235 50.4905 52.2255 50.4133 52.1543C50.3361 52.083 50.2203 51.988 50.0659 51.8692C50.0184 51.8336 49.9828 51.8069 49.959 51.7891C49.8937 51.7356 49.8373 51.6911 49.7898 51.6555C49.7482 51.6198 49.6948 51.5753 49.6294 51.5218C49.5701 51.4625 49.5196 51.409 49.478 51.3615C49.4364 51.314 49.3919 51.2606 49.3444 51.2012C49.2969 51.1359 49.2583 51.0735 49.2286 51.0141C49.1989 50.9488 49.1692 50.8775 49.1395 50.8003C49.1158 50.7232 49.098 50.646 49.0861 50.5688C49.0742 50.4856 49.0683 50.3965 49.0683 50.3015C49.0742 50.2065 49.0831 50.1056 49.095 49.9987C49.1722 49.5177 49.3771 49.102 49.7096 48.7516C50.0481 48.3953 50.4519 48.2172 50.921 48.2172C51.2832 48.2172 51.6188 48.336 51.9276 48.5735ZM55.8795 48.3063L54.8195 55.0225H54.196L54.7483 51.5575H53.2073L52.655 55.0225H52.0315L53.0915 48.3063H53.715L53.2964 50.9874H54.8374L55.256 48.3063H55.8795ZM59.1184 48.3063L59.0293 48.8763H58.0228L57.0519 55.0225H56.4284L57.3993 48.8763H56.3927L56.4818 48.3063H59.1184ZM60.3347 48.3063L59.2747 55.0225H58.6512L59.7112 48.3063H60.3347ZM64.2043 48.3063L63.1443 55.0225H62.601L61.7993 50.5064C61.7815 50.3995 61.7637 50.2422 61.7459 50.0343C61.7281 49.8205 61.7162 49.6899 61.7103 49.6424H61.6746C61.5974 50.4203 61.5529 50.8538 61.541 50.9429L60.8908 55.0225H60.3474L61.4074 48.3063H61.9508L62.7524 52.9738C62.7821 53.1282 62.8148 53.3597 62.8504 53.6685H62.8771C62.8831 53.621 62.892 53.4904 62.9038 53.2766C62.9217 53.0569 62.9395 52.8906 62.9573 52.7778L63.661 48.3063H64.2043ZM66.65 48.3063L66.9351 55.0225H66.267L66.2403 53.6418H64.8151L64.3519 55.0225H63.6839L66.0621 48.3063H66.65ZM65.0022 53.0985H66.2225L66.1869 50.5242C66.1869 50.4351 66.2017 49.9779 66.2314 49.1525H66.1958C66.1661 49.2594 66.1067 49.4731 66.0176 49.7938C65.9285 50.1085 65.8573 50.352 65.8038 50.5242L65.0022 53.0985Z" fill="#6E0023"/>
<g filter="url(#filter0_f_3999_120276)">
<path fill-rule="evenodd" clip-rule="evenodd" d="M64.0426 31.0667C64.0442 30.9519 64.045 30.8369 64.045 30.7217C64.045 17.4771 53.3081 6.74023 40.0635 6.74023C26.8189 6.74023 16.082 17.4771 16.082 30.7217C16.082 43.9663 26.8189 54.7032 40.0635 54.7032C40.1787 54.7032 40.2938 54.7024 40.4086 54.7008C27.6992 54.5189 17.4524 44.1595 17.4524 31.4069C17.4524 18.5407 27.8825 8.1106 40.7487 8.1106C53.5013 8.1106 63.8606 18.3573 64.0426 31.0667Z" fill="#6E0023"/>
</g>
<path fill-rule="evenodd" clip-rule="evenodd" d="M64.0426 31.0667C64.0442 30.9519 64.045 30.8369 64.045 30.7217C64.045 17.4771 53.3081 6.74023 40.0635 6.74023C26.8189 6.74023 16.082 17.4771 16.082 30.7217C16.082 43.9663 26.8189 54.7032 40.0635 54.7032C40.1787 54.7032 40.2938 54.7024 40.4086 54.7008C27.6992 54.5189 17.4524 44.1595 17.4524 31.4069C17.4524 18.5407 27.8825 8.1106 40.7487 8.1106C53.5013 8.1106 63.8606 18.3573 64.0426 31.0667Z" fill="#6E0023"/>
<defs>
<filter id="filter0_f_3999_120276" x="13.4718" y="4.13" width="53.1833" height="53.1833" filterUnits="userSpaceOnUse" color-interpolation-filters="sRGB">
<feFlood flood-opacity="0" result="BackgroundImageFix"/>
<feBlend mode="normal" in="SourceGraphic" in2="BackgroundImageFix" result="shape"/>
<feGaussianBlur stdDeviation="1.30511" result="effect1_foregroundBlur_3999_120276"/>
</filter>
</defs>
</svg>
