<svg width="59" height="42" viewBox="0 0 59 42" fill="none" xmlns="http://www.w3.org/2000/svg">
<g clip-path="url(#clip0)">
<path d="M70.7052 22.1728C69.5967 22.172 68.4882 22.1708 67.3797 22.1716C65.2851 22.1728 64.052 20.7141 64.052 20.7141C64.052 20.7141 62.8365 22.17 60.6913 22.1712C58.6216 22.1728 57.3816 20.7141 57.3816 20.7141C57.3816 20.7141 56.148 22.17 54.0534 22.1712C51.9587 22.1724 50.7219 20.7141 50.7219 20.7141C50.7219 20.7141 49.4851 22.17 47.3649 22.1712C45.2448 22.1724 44.008 20.6729 44.008 20.6729C44.008 20.6729 42.7837 22.17 40.6983 22.1712C38.6128 22.1724 37.3705 20.7137 37.3705 20.7137C37.3705 20.7137 36.155 22.1696 34.0098 22.1708C31.9401 22.1724 30.7001 20.7137 30.7001 20.7137C30.7001 20.7137 29.4665 22.1696 27.3719 22.1708C25.2772 22.172 24.0404 20.7137 24.0404 20.7137C24.0404 20.7137 22.8036 22.1696 20.6834 22.1708C18.5633 22.172 17.3255 20.6733 17.3255 20.6733C17.3255 20.6733 16.1077 22.1376 14.0158 22.151C11.9239 22.1644 10.7052 22.1716 10.7052 22.1716" stroke="#00A881" stroke-width="0.5" stroke-miterlimit="10"/>
<path d="M70.7052 12.5728C69.5967 12.5719 68.4882 12.5707 67.3797 12.5715C65.2851 12.5728 64.052 11.114 64.052 11.114C64.052 11.114 62.8365 12.5699 60.6913 12.5711C58.6216 12.5728 57.3816 11.114 57.3816 11.114C57.3816 11.114 56.148 12.5699 54.0534 12.5711C51.9587 12.5723 50.7219 11.114 50.7219 11.114C50.7219 11.114 49.4851 12.5699 47.3649 12.5711C45.2448 12.5723 44.008 11.0728 44.008 11.0728C44.008 11.0728 42.7837 12.5699 40.6983 12.5711C38.6128 12.5723 37.3705 11.1136 37.3705 11.1136C37.3705 11.1136 36.155 12.5695 34.0098 12.5707C31.9401 12.5723 30.7001 11.1136 30.7001 11.1136C30.7001 11.1136 29.4665 12.5695 27.3719 12.5707C25.2772 12.5719 24.0404 11.1136 24.0404 11.1136C24.0404 11.1136 22.8036 12.5695 20.6834 12.5707C18.5633 12.5719 17.3255 11.0732 17.3255 11.0732C17.3255 11.0732 16.1077 12.5375 14.0158 12.5509C11.9239 12.5643 10.7052 12.5715 10.7052 12.5715" stroke="#00A881" stroke-width="0.5" stroke-miterlimit="10"/>
<path d="M70.7052 31.7729C69.5967 31.7721 68.4882 31.7709 67.3797 31.7717C65.2851 31.7729 64.052 30.3142 64.052 30.3142C64.052 30.3142 62.8365 31.7701 60.6913 31.7713C58.6216 31.7729 57.3816 30.3142 57.3816 30.3142C57.3816 30.3142 56.148 31.7701 54.0534 31.7713C51.9587 31.7725 50.7219 30.3142 50.7219 30.3142C50.7219 30.3142 49.4851 31.7701 47.3649 31.7713C45.2448 31.7725 44.008 30.2729 44.008 30.2729C44.008 30.2729 42.7837 31.7701 40.6983 31.7713C38.6128 31.7725 37.3705 30.3138 37.3705 30.3138C37.3705 30.3138 36.155 31.7697 34.0098 31.7709C31.9401 31.7725 30.7001 30.3138 30.7001 30.3138C30.7001 30.3138 29.4665 31.7697 27.3719 31.7709C25.2772 31.7721 24.0404 30.3138 24.0404 30.3138C24.0404 30.3138 22.8036 31.7697 20.6834 31.7709C18.5633 31.7721 17.3255 30.2734 17.3255 30.2734C17.3255 30.2734 16.1077 31.7377 14.0158 31.7511C11.9239 31.7644 10.7052 31.7717 10.7052 31.7717" stroke="#00A881" stroke-width="0.5" stroke-miterlimit="10"/>
<path d="M43.1666 -0.258789C34.3477 -0.258789 27.1977 9.23594 27.1977 20.9507C27.1977 32.6655 34.3477 42.1586 43.1666 42.1586" stroke="#00A881" stroke-width="0.5" stroke-miterlimit="10"/>
<path d="M31.8667 -0.258789C40.6857 -0.258789 47.8356 9.23594 47.8356 20.9507C47.8356 32.6655 40.6857 42.1586 31.8667 42.1586" stroke="#00A881" stroke-width="0.5" stroke-miterlimit="10"/>
</g>
<rect x="17.1666" y="0.5" width="41" height="41" rx="20.5" stroke="#00A881"/>
<path d="M14.3333 9.66651L1 22.3332L14.3333 34.6665" stroke="#00A881"/>
<defs>
<clipPath id="clip0">
<rect x="17.1666" y="0.5" width="41" height="41" rx="20.5" stroke="#00A881"/>
</clipPath>
</defs>
</svg>
