<svg width="48" height="48" viewBox="0 0 48 48" fill="none" xmlns="http://www.w3.org/2000/svg">
<rect x="0.5" y="0.5" width="47" height="47" rx="23.5" stroke="white"/>
<path d="M32.4083 17.89L28.4083 16.09H27.5883L23.9983 17.7L20.4083 16.09H20.3583L20.2383 16H19.6383L15.6383 17.8C15.4388 17.8764 15.269 18.0148 15.1538 18.1947C15.0387 18.3747 14.9841 18.5868 14.9983 18.8V31C14.9986 31.1673 15.0408 31.3319 15.1212 31.4786C15.2016 31.6254 15.3175 31.7496 15.4583 31.84C15.6192 31.944 15.8067 31.9995 15.9983 32C16.1398 31.9993 16.2795 31.9687 16.4083 31.91L19.9983 30.3L23.5883 31.91H23.6383C23.751 31.9627 23.8739 31.99 23.9983 31.99C24.1227 31.99 24.2456 31.9627 24.3583 31.91H24.4083L27.9983 30.3L31.5883 31.91C31.717 31.9687 31.8568 31.9993 31.9983 32C32.1899 31.9995 32.3773 31.944 32.5383 31.84C32.6791 31.7496 32.795 31.6254 32.8754 31.4786C32.9558 31.3319 32.998 31.1673 32.9983 31V18.8C32.9979 18.6076 32.942 18.4195 32.8374 18.2581C32.7327 18.0967 32.5837 17.9689 32.4083 17.89ZM20.9983 18.55L22.9983 19.44V29.44L20.9983 28.55V18.55ZM30.9983 29.45L28.9983 28.56V18.56L30.9983 19.45V29.45Z" fill="white"/>
</svg>
