<svg width="49" height="48" viewBox="0 0 49 48" fill="none" xmlns="http://www.w3.org/2000/svg">
<rect x="1" y="0.5" width="47" height="47" rx="23.5" stroke="white"/>
<path d="M32.5 17C32.5 16.7348 32.3946 16.4804 32.2071 16.2929C32.0196 16.1054 31.7652 16 31.5 16H26.5C26.2348 16 25.9804 16.1054 25.7929 16.2929C25.6054 16.4804 25.5 16.7348 25.5 17C25.5 17.2652 25.6054 17.5196 25.7929 17.7071C25.9804 17.8946 26.2348 18 26.5 18H29.07L25.79 21.29C25.6963 21.383 25.6219 21.4936 25.5711 21.6154C25.5203 21.7373 25.4942 21.868 25.4942 22C25.4942 22.132 25.5203 22.2627 25.5711 22.3846C25.6219 22.5064 25.6963 22.617 25.79 22.71C25.883 22.8037 25.9936 22.8781 26.1154 22.9289C26.2373 22.9797 26.368 23.0058 26.5 23.0058C26.632 23.0058 26.7627 22.9797 26.8846 22.9289C27.0064 22.8781 27.117 22.8037 27.21 22.71L30.5 19.42V22C30.5 22.2652 30.6054 22.5196 30.7929 22.7071C30.9804 22.8946 31.2348 23 31.5 23C31.7652 23 32.0196 22.8946 32.2071 22.7071C32.3946 22.5196 32.5 22.2652 32.5 22V17ZM23.21 25.29C23.117 25.1963 23.0064 25.1219 22.8846 25.0711C22.7627 25.0203 22.632 24.9942 22.5 24.9942C22.368 24.9942 22.2373 25.0203 22.1154 25.0711C21.9936 25.1219 21.883 25.1963 21.79 25.29L18.5 28.57V26C18.5 25.7348 18.3946 25.4804 18.2071 25.2929C18.0196 25.1054 17.7652 25 17.5 25C17.2348 25 16.9804 25.1054 16.7929 25.2929C16.6054 25.4804 16.5 25.7348 16.5 26V31C16.5 31.2652 16.6054 31.5196 16.7929 31.7071C16.9804 31.8946 17.2348 32 17.5 32H22.5C22.7652 32 23.0196 31.8946 23.2071 31.7071C23.3946 31.5196 23.5 31.2652 23.5 31C23.5 30.7348 23.3946 30.4804 23.2071 30.2929C23.0196 30.1054 22.7652 30 22.5 30H19.92L23.21 26.71C23.3037 26.617 23.3781 26.5064 23.4289 26.3846C23.4797 26.2627 23.5058 26.132 23.5058 26C23.5058 25.868 23.4797 25.7373 23.4289 25.6154C23.3781 25.4936 23.3037 25.383 23.21 25.29Z" fill="white"/>
</svg>
