<svg width="24" height="24" viewBox="0 0 24 24" fill="none" xmlns="http://www.w3.org/2000/svg">
<path d="M6.86098 4.30891C8.38213 3.2925 10.1705 2.75 12 2.75C13.2147 2.75 14.4176 2.98926 15.5398 3.45411C16.6621 3.91897 17.6818 4.60032 18.5407 5.45926C19.3997 6.3182 20.081 7.33792 20.5459 8.46018C21.0107 9.58244 21.25 10.7853 21.25 12C21.25 13.8295 20.7075 15.6179 19.6911 17.139C18.6747 18.6602 17.23 19.8458 15.5398 20.5459C13.8496 21.246 11.9897 21.4292 10.1954 21.0723C8.4011 20.7154 6.7529 19.8344 5.45927 18.5407C4.16563 17.2471 3.28465 15.5989 2.92774 13.8046C2.57083 12.0103 2.75401 10.1504 3.45412 8.46018C4.15423 6.76996 5.33982 5.32531 6.86098 4.30891Z" stroke="#00A881" stroke-width="1.5"/>
<path d="M12 9C12.5523 9 13 8.55228 13 8C13 7.44772 12.5523 7 12 7C11.4477 7 11 7.44772 11 8C11 8.55228 11.4477 9 12 9Z" fill="#00A881"/>
<path d="M12 10C11.7348 10 11.4804 10.1054 11.2929 10.2929C11.1054 10.4804 11 10.7348 11 11V16C11 16.2652 11.1054 16.5196 11.2929 16.7071C11.4804 16.8946 11.7348 17 12 17C12.2652 17 12.5196 16.8946 12.7071 16.7071C12.8946 16.5196 13 16.2652 13 16V11C13 10.7348 12.8946 10.4804 12.7071 10.2929C12.5196 10.1054 12.2652 10 12 10Z" fill="#00A881"/>
</svg>
