<svg width="33" height="14" viewBox="0 0 33 14" fill="none" xmlns="http://www.w3.org/2000/svg">
<g clip-path="url(#clip0_4210_6074)">
<path fill-rule="evenodd" clip-rule="evenodd" d="M0.357423 7.76628C0.138908 7.58284 -2.58195e-08 7.30765 -2.70063e-08 7.00003C-2.79184e-08 6.76362 0.0820323 6.54638 0.219184 6.37521C0.257919 6.3268 0.301373 6.28173 0.349209 6.24072L7.34921 0.240723C7.76853 -0.118698 8.39983 -0.0701373 8.75926 0.349188C9.11868 0.768515 9.07012 1.39981 8.65079 1.75924L3.7032 6.00003L101 6.00001C101.552 6.00001 102 6.44773 102 7.00001C102 7.5523 101.552 8.00001 101 8.00001L3.70331 8.00003L8.65079 12.2407C9.07012 12.6001 9.11868 13.2314 8.75926 13.6508C8.39983 14.0701 7.76853 14.1187 7.34921 13.7592L0.357423 7.76628Z" fill="white"/>
</g>
<defs>
<clipPath id="clip0_4210_6074">
<rect width="33" height="14" fill="white" transform="translate(33 14) rotate(-180)"/>
</clipPath>
</defs>
</svg>
