<svg width="48" height="48" viewBox="0 0 48 48" fill="none" xmlns="http://www.w3.org/2000/svg">
<rect x="0.5" y="0.5" width="47" height="47" rx="23.5" stroke="white"/>
<path fill-rule="evenodd" clip-rule="evenodd" d="M22.7149 22.7129C22.5273 22.9004 22.273 23.0058 22.0078 23.0058H17.0078C16.7425 23.0058 16.4882 22.9004 16.3006 22.7129C16.1131 22.5254 16.0078 22.271 16.0078 22.0058C16.0078 21.7406 16.1131 21.4862 16.3006 21.2987C16.4882 21.1112 16.7425 21.0058 17.0078 21.0058H19.5878L16.2978 17.7158C16.204 17.6228 16.1296 17.5122 16.0789 17.3904C16.0281 17.2685 16.002 17.1378 16.002 17.0058C16.002 16.8738 16.0281 16.7431 16.0789 16.6212C16.1296 16.4994 16.204 16.3888 16.2978 16.2958C16.3907 16.2021 16.5013 16.1277 16.6232 16.0769C16.745 16.0261 16.8757 16 17.0078 16C17.1398 16 17.2705 16.0261 17.3923 16.0769C17.5142 16.1277 17.6248 16.2021 17.7178 16.2958L21.0078 19.5758V17.0058C21.0078 16.7406 21.1131 16.4862 21.3006 16.2987C21.4882 16.1112 21.7425 16.0058 22.0078 16.0058C22.273 16.0058 22.5273 16.1112 22.7149 16.2987C22.9024 16.4862 23.0078 16.7406 23.0078 17.0058L23.0078 22.0058C23.0078 22.271 22.9024 22.5254 22.7149 22.7129ZM31.7041 31.7061C31.7979 31.6131 31.8723 31.5025 31.923 31.3807C31.9738 31.2588 31.9999 31.1281 31.9999 30.9961C31.9999 30.8641 31.9738 30.7334 31.923 30.6115C31.8723 30.4897 31.7979 30.3791 31.7041 30.2861L28.4241 26.9961H30.9941C31.2594 26.9961 31.5137 26.8907 31.7012 26.7032C31.8888 26.5157 31.9941 26.2613 31.9941 25.9961C31.9941 25.7309 31.8888 25.4765 31.7012 25.289C31.5137 25.1015 31.2594 24.9961 30.9941 24.9961H25.9941C25.7289 24.9961 25.4746 25.1015 25.287 25.289C25.0995 25.4765 24.9941 25.7309 24.9941 25.9961V30.9961C24.9941 31.2613 25.0995 31.5157 25.287 31.7032C25.4746 31.8907 25.7289 31.9961 25.9941 31.9961C26.2594 31.9961 26.5137 31.8907 26.7012 31.7032C26.8888 31.5157 26.9941 31.2613 26.9941 30.9961V28.4161L30.2841 31.7061C30.3771 31.7998 30.4877 31.8742 30.6096 31.925C30.7314 31.9758 30.8621 32.0019 30.9941 32.0019C31.1262 32.0019 31.2569 31.9758 31.3787 31.925C31.5006 31.8742 31.6112 31.7998 31.7041 31.7061Z" fill="white"/>
</svg>
