<svg width="64" height="89" viewBox="0 0 64 89" fill="none" xmlns="http://www.w3.org/2000/svg">
<g clip-path="url(#clip0)">
<path d="M81.5586 59.7588C79.8959 59.7576 78.2331 59.7558 76.5704 59.757C73.4284 59.7588 71.5787 57.5707 71.5787 57.5707C71.5787 57.5707 69.7555 59.7545 66.5377 59.7564C63.4332 59.7588 61.5732 57.5707 61.5732 57.5707C61.5732 57.5707 59.7228 59.7545 56.5808 59.7564C53.4388 59.7582 51.5836 57.5707 51.5836 57.5707C51.5836 57.5707 49.7284 59.7545 46.5482 59.7564C43.3679 59.7582 41.5127 57.5088 41.5127 57.5088C41.5127 57.5088 39.6763 59.7545 36.5482 59.7564C33.42 59.7582 31.5565 57.5701 31.5565 57.5701C31.5565 57.5701 29.7333 59.7539 26.5155 59.7558C23.411 59.7582 21.5509 57.5701 21.5509 57.5701C21.5509 57.5701 19.7006 59.7539 16.5586 59.7558C13.4166 59.7576 11.5614 57.5701 11.5614 57.5701C11.5614 57.5701 9.70618 59.7539 6.52594 59.7558C3.3457 59.7576 1.48911 57.5094 1.48911 57.5094C1.48911 57.5094 -0.337599 59.706 -3.47545 59.726C-6.61331 59.746 -8.44141 59.757 -8.44141 59.757" stroke="#00A881" stroke-width="0.5" stroke-miterlimit="10"/>
<path d="M81.5586 45.3594C79.8959 45.3582 78.2331 45.3563 76.5704 45.3576C73.4284 45.3594 71.5787 43.1713 71.5787 43.1713C71.5787 43.1713 69.7555 45.3551 66.5377 45.3569C63.4332 45.3594 61.5732 43.1713 61.5732 43.1713C61.5732 43.1713 59.7228 45.3551 56.5808 45.3569C53.4388 45.3588 51.5836 43.1713 51.5836 43.1713C51.5836 43.1713 49.7284 45.3551 46.5482 45.3569C43.3679 45.3588 41.5127 43.1094 41.5127 43.1094C41.5127 43.1094 39.6763 45.3551 36.5482 45.3569C33.42 45.3588 31.5565 43.1707 31.5565 43.1707C31.5565 43.1707 29.7333 45.3545 26.5155 45.3563C23.411 45.3588 21.5509 43.1707 21.5509 43.1707C21.5509 43.1707 19.7006 45.3545 16.5586 45.3563C13.4166 45.3582 11.5614 43.1707 11.5614 43.1707C11.5614 43.1707 9.70618 45.3545 6.52594 45.3563C3.3457 45.3582 1.48911 43.11 1.48911 43.11C1.48911 43.11 -0.337599 45.3066 -3.47545 45.3266C-6.61331 45.3466 -8.44141 45.3576 -8.44141 45.3576" stroke="#00A881" stroke-width="0.5" stroke-miterlimit="10"/>
<path d="M81.5586 74.1592C79.8959 74.158 78.2331 74.1561 76.5704 74.1574C73.4284 74.1592 71.5787 71.9711 71.5787 71.9711C71.5787 71.9711 69.7555 74.1549 66.5377 74.1568C63.4332 74.1592 61.5732 71.9711 61.5732 71.9711C61.5732 71.9711 59.7228 74.1549 56.5808 74.1568C53.4388 74.1586 51.5836 71.9711 51.5836 71.9711C51.5836 71.9711 49.7284 74.1549 46.5482 74.1568C43.3679 74.1586 41.5127 71.9092 41.5127 71.9092C41.5127 71.9092 39.6763 74.1549 36.5482 74.1568C33.42 74.1586 31.5565 71.9705 31.5565 71.9705C31.5565 71.9705 29.7333 74.1543 26.5155 74.1561C23.411 74.1586 21.5509 71.9705 21.5509 71.9705C21.5509 71.9705 19.7006 74.1543 16.5586 74.1561C13.4166 74.158 11.5614 71.9705 11.5614 71.9705C11.5614 71.9705 9.70618 74.1543 6.52594 74.1561C3.3457 74.158 1.48911 71.9098 1.48911 71.9098C1.48911 71.9098 -0.337599 74.1064 -3.47545 74.1264C-6.61331 74.1464 -8.44141 74.1574 -8.44141 74.1574" stroke="#00A881" stroke-width="0.5" stroke-miterlimit="10"/>
<path d="M40.25 26.1113C27.0215 26.1113 16.2966 40.3534 16.2966 57.9256C16.2966 75.4978 27.0215 89.7374 40.25 89.7374" stroke="#00A881" stroke-width="0.5" stroke-miterlimit="10"/>
<path d="M23.3008 26.1113C36.5292 26.1113 47.2542 40.3534 47.2542 57.9256C47.2542 75.4978 36.5292 89.7374 23.3008 89.7374" stroke="#00A881" stroke-width="0.5" stroke-miterlimit="10"/>
</g>
<rect x="1.5" y="27.5" width="61" height="61" rx="30.5" stroke="#00A881"/>
<path d="M50.5 23L31.5 3L13 23" stroke="#00A881"/>
<defs>
<clipPath id="clip0">
<rect x="1.5" y="27.5" width="61" height="61" rx="30.5" stroke="#00A881"/>
</clipPath>
</defs>
</svg>
