<svg width="48" height="48" viewBox="-1 -1 50 50" fill="none" xmlns="http://www.w3.org/2000/svg">
<path d="M0 24C0 10.7452 10.7452 0 24 0C37.2548 0 48 10.7452 48 24C48 37.2548 37.2548 48 24 48C10.7452 48 0 37.2548 0 24Z" fill="#F2F2F2"/>
<path fill-rule="evenodd" clip-rule="evenodd" d="M24 16C23.4477 16 23 16.4477 23 17V23H17C16.4477 23 16 23.4477 16 24C16 24.5523 16.4477 25 17 25H23V31C23 31.5523 23.4477 32 24 32C24.5523 32 25 31.5523 25 31V25H31C31.5523 25 32 24.5523 32 24C32 23.4477 31.5523 23 31 23H25V17C25 16.4477 24.5523 16 24 16Z" fill="#828282"/>
<path d="M24 47C11.2975 47 1 36.7025 1 24H-1C-1 37.8071 10.1929 49 24 49V47ZM47 24C47 36.7025 36.7025 47 24 47V49C37.8071 49 49 37.8071 49 24H47ZM24 1C36.7025 1 47 11.2975 47 24H49C49 10.1929 37.8071 -1 24 -1V1ZM24 -1C10.1929 -1 -1 10.1929 -1 24H1C1 11.2975 11.2975 1 24 1V-1Z" fill="#E0E0E0"/>
</svg>
