<svg width="24" height="24" viewBox="0 0 24 24" fill="none" xmlns="http://www.w3.org/2000/svg">
<path fill-rule="evenodd" clip-rule="evenodd" d="M20 10.2928V11.9998C21.103 11.9998 22 12.8968 22 13.9998V17.9998C22 19.1028 21.103 19.9998 20 19.9998H18V10.2928C18 6.92082 15.392 4.09882 12.184 4.00282C11.3804 3.97674 10.5798 4.11306 9.83014 4.40362C9.08047 4.69417 8.39712 5.133 7.821 5.69382C7.24245 6.25141 6.78282 6.92041 6.46985 7.66047C6.15688 8.40053 5.99705 9.19631 6 9.99982V19.9998H4C2.897 19.9998 2 19.1028 2 17.9998V13.9998C2 12.8968 2.897 11.9998 4 11.9998V9.99982C3.99623 8.92846 4.2095 7.86743 4.62697 6.88074C5.04444 5.89405 5.65744 5.00214 6.429 4.25882C7.994 2.73882 10.041 1.95182 12.245 2.00282C16.521 2.13182 20 5.85082 20 10.2928ZM9 12H7V20H9V12ZM17 12H15V20H17V12Z" fill="#CE0031"/>
</svg>
