<svg width="49" height="48" viewBox="0 0 49 48" fill="none" xmlns="http://www.w3.org/2000/svg">
<rect x="1" y="0.5" width="47" height="47" rx="23.5" stroke="white"/>
<path d="M24.5002 27.5002C24.3686 27.5009 24.2381 27.4757 24.1163 27.426C23.9944 27.3762 23.8836 27.3029 23.7902 27.2102L19.7902 23.2102C19.6969 23.1169 19.623 23.0063 19.5725 22.8844C19.5221 22.7626 19.4961 22.632 19.4961 22.5002C19.4961 22.3683 19.5221 22.2378 19.5725 22.1159C19.623 21.9941 19.6969 21.8834 19.7902 21.7902C19.8834 21.6969 19.9941 21.623 20.1159 21.5725C20.2378 21.5221 20.3683 21.4961 20.5002 21.4961C20.632 21.4961 20.7626 21.5221 20.8844 21.5725C21.0063 21.623 21.1169 21.6969 21.2102 21.7902L24.5002 25.1002L27.8002 21.9202C27.8922 21.8179 28.0043 21.7357 28.1295 21.6787C28.2547 21.6217 28.3903 21.5912 28.5279 21.589C28.6654 21.5868 28.802 21.613 28.9289 21.666C29.0559 21.719 29.1705 21.7976 29.2657 21.897C29.3609 21.9963 29.4346 22.1142 29.4821 22.2433C29.5297 22.3724 29.5501 22.5099 29.542 22.6472C29.534 22.7846 29.4977 22.9188 29.4355 23.0414C29.3732 23.1641 29.2863 23.2726 29.1802 23.3602L25.1802 27.2202C24.9973 27.3965 24.7542 27.4966 24.5002 27.5002Z" fill="white"/>
</svg>
