<svg width="48" height="48" viewBox="-1 -1 50 50" fill="none" xmlns="http://www.w3.org/2000/svg">
<path d="M0 24C0 10.7452 10.7452 0 24 0C37.2548 0 48 10.7452 48 24C48 37.2548 37.2548 48 24 48C10.7452 48 0 37.2548 0 24Z" fill="#F2F2F2"/>
<path d="M33.0014 23.3492C32.9899 23.1632 32.9267 22.9842 32.819 22.8323C32.7112 22.6803 32.5631 22.5615 32.3914 22.4892L30.2414 21.5692L32.5014 20.2692C32.6616 20.177 32.7932 20.0423 32.8815 19.8799C32.9697 19.7175 33.0112 19.5338 33.0014 19.3492C32.9899 19.1632 32.9267 18.9842 32.819 18.8323C32.7112 18.6803 32.5631 18.5615 32.3914 18.4892L24.3914 15.0792C24.268 15.0269 24.1354 15 24.0014 15C23.8674 15 23.7348 15.0269 23.6114 15.0792L15.6114 18.4892C15.4397 18.5615 15.2916 18.6803 15.1839 18.8323C15.0761 18.9842 15.0129 19.1632 15.0014 19.3492C14.9916 19.5338 15.0331 19.7175 15.1214 19.8799C15.2096 20.0423 15.3412 20.177 15.5014 20.2692L17.7614 21.5692L15.6114 22.4892C15.4397 22.5615 15.2916 22.6803 15.1839 22.8323C15.0761 22.9842 15.0129 23.1632 15.0014 23.3492C14.9916 23.5338 15.0331 23.7175 15.1214 23.8799C15.2096 24.0423 15.3412 24.177 15.5014 24.2692L17.7614 25.5692L15.6114 26.4892C15.4397 26.5615 15.2916 26.6803 15.1839 26.8323C15.0761 26.9842 15.0129 27.1632 15.0014 27.3492C14.9916 27.5338 15.0331 27.7175 15.1214 27.8799C15.2096 28.0423 15.3412 28.177 15.5014 28.2692L23.5014 32.8692C23.6534 32.957 23.8259 33.0032 24.0014 33.0032C24.177 33.0032 24.3494 32.957 24.5014 32.8692L32.5014 28.2692C32.6616 28.177 32.7932 28.0423 32.8815 27.8799C32.9697 27.7175 33.0112 27.5338 33.0014 27.3492C32.9899 27.1632 32.9267 26.9842 32.819 26.8323C32.7112 26.6803 32.5631 26.5615 32.3914 26.4892L30.2414 25.5692L32.5014 24.2692C32.6616 24.177 32.7932 24.0423 32.8815 23.8799C32.9697 23.7175 33.0112 23.5338 33.0014 23.3492ZM24.0014 17.0892L29.7614 19.5392L24.0014 22.8492L18.2414 19.5392L24.0014 17.0892ZM23.5014 24.8692C23.6534 24.957 23.8259 25.0032 24.0014 25.0032C24.177 25.0032 24.3494 24.957 24.5014 24.8692L28.0714 22.8692L29.7614 23.5892L24.0014 26.8492L18.2414 23.5392L19.9314 22.8192L23.5014 24.8692ZM29.7614 27.5392L24.0014 30.8492L18.2414 27.5392L19.9314 26.8192L23.5014 28.8692C23.6534 28.957 23.8259 29.0032 24.0014 29.0032C24.177 29.0032 24.3494 28.957 24.5014 28.8692L28.0714 26.8192L29.7614 27.5392Z" fill="#828282"/>
<!-- <rect x="32" width="16" height="16" rx="8" fill="#CE0031"/> -->
<!-- <path d="M42.1897 5.94V4.8H37.7747V5.935H40.7547L38.6747 7.715L39.2247 8.665C39.4147 8.56 39.6347 8.495 39.8497 8.495C40.5747 8.495 41.0847 9.04 41.0847 9.75C41.0847 10.455 40.5547 10.99 39.8497 10.995C39.3197 11 38.8247 10.68 38.6597 10.105L37.4947 10.42C37.8047 11.465 38.7747 12.135 39.8547 12.135C41.2047 12.135 42.3097 11.115 42.3097 9.75C42.3097 8.655 41.6697 7.725 40.5647 7.5L42.1897 5.94Z" fill="white"/> -->
<path d="M24 47C11.2975 47 1 36.7025 1 24H-1C-1 37.8071 10.1929 49 24 49V47ZM47 24C47 36.7025 36.7025 47 24 47V49C37.8071 49 49 37.8071 49 24H47ZM24 1C36.7025 1 47 11.2975 47 24H49C49 10.1929 37.8071 -1 24 -1V1ZM24 -1C10.1929 -1 -1 10.1929 -1 24H1C1 11.2975 11.2975 1 24 1V-1Z" fill="#E0E0E0"/>
</svg>
