<svg width="16" height="19" viewBox="0 0 16 19" fill="none" xmlns="http://www.w3.org/2000/svg">
<path fill-rule="evenodd" clip-rule="evenodd" d="M3.52142 5.146C3.32616 5.34126 3.32616 5.65784 3.52142 5.85311C3.71669 6.04837 4.03327 6.04837 4.22853 5.85311L7.60576 2.47588L7.5 13.3697C7.49732 13.6458 7.71899 13.8718 7.99512 13.8745C8.27125 13.8772 8.49727 13.6555 8.49995 13.3794L8.60603 2.45244L12.0067 5.85311C12.202 6.04837 12.5185 6.04837 12.7138 5.85311C12.9091 5.65784 12.9091 5.34126 12.7138 5.146L8.47117 0.903358L8.11762 0.549805L7.76406 0.903358L3.52142 5.146ZM1 9.99953C1 9.72339 0.776142 9.49953 0.5 9.49953C0.223858 9.49953 0 9.72339 0 9.99953V14.2495C0 16.7348 2.01472 18.7495 4.5 18.7495H11.5C13.9853 18.7495 16 16.7348 16 14.2495V9.99953C16 9.72339 15.7761 9.49953 15.5 9.49953C15.2239 9.49953 15 9.72339 15 9.99953V14.2495C15 16.1825 13.433 17.7495 11.5 17.7495H4.5C2.567 17.7495 1 16.1825 1 14.2495V9.99953Z" fill="black"/>
</svg>
