<svg width="22" height="22" viewBox="0 0 22 22" fill="none" xmlns="http://www.w3.org/2000/svg">
<path d="M11 17.042C10.447 17.042 10 16.595 10 16.042V10.542C10 9.98899 10.447 9.54199 11 9.54199C11.553 9.54199 12 9.98899 12 10.542V16.042C12 16.595 11.553 17.042 11 17.042Z" fill="#5A6C7B"/>
<path d="M11 8.29199C11.6904 8.29199 12.25 7.73235 12.25 7.04199C12.25 6.35164 11.6904 5.79199 11 5.79199C10.3096 5.79199 9.75 6.35164 9.75 7.04199C9.75 7.73235 10.3096 8.29199 11 8.29199Z" fill="#5A6C7B"/>
<path d="M11 21.75C5.072 21.75 0.25 16.928 0.25 11C0.25 5.072 5.072 0.25 11 0.25C16.928 0.25 21.75 5.072 21.75 11C21.75 16.928 16.928 21.75 11 21.75ZM11 1.75C5.9 1.75 1.75 5.9 1.75 11C1.75 16.1 5.9 20.25 11 20.25C16.1 20.25 20.25 16.1 20.25 11C20.25 5.9 16.1 1.75 11 1.75Z" fill="#5A6C7B"/>
</svg>
