<svg width="20" height="20" viewBox="0 0 20 20" fill="none" xmlns="http://www.w3.org/2000/svg">
<path d="M12.0459 0.241934L7.89795 0.231934H7.89595C3.52195 0.231934 0.0959473 3.65893 0.0959473 8.03393C0.0959473 12.1319 3.28195 15.2399 7.56095 15.4039V19.2319C7.56095 19.3399 7.60495 19.5179 7.68095 19.6349C7.82295 19.8599 8.06495 19.9819 8.31295 19.9819C8.45095 19.9819 8.58995 19.9439 8.71495 19.8639C8.97895 19.6959 15.1879 15.7239 16.8029 14.3579C18.7049 12.7479 19.8429 10.3879 19.8459 8.04593V8.02893C19.8399 3.66193 16.4159 0.241933 12.0459 0.240933V0.241934ZM15.8329 13.2139C14.6989 14.1739 10.9709 16.6189 9.06095 17.8569V14.6699C9.06095 14.2559 8.72595 13.9199 8.31095 13.9199H7.91495C4.25495 13.9199 1.59695 11.4439 1.59695 8.03393C1.59695 4.49993 4.36495 1.73193 7.89695 1.73193L12.0439 1.74193H12.0459C15.5779 1.74193 18.3459 4.50793 18.3479 8.03793C18.3449 9.94793 17.4059 11.8819 15.8339 13.2139H15.8329Z" fill="#5A6C7B"/>
</svg>
