<svg width="104" height="28" viewBox="0 0 104 28" fill="none" xmlns="http://www.w3.org/2000/svg">
<rect width="104" height="28" rx="2" fill="#008AF5"/>
<path d="M20.0425 19L23.7192 8.43115H21.6831L19.0024 16.9712H18.9585L16.2778 8.43115H14.1978L17.8745 19H20.0425ZM25.4697 10.0645C26.0264 10.0645 26.4658 9.61768 26.4658 9.07568C26.4658 8.52637 26.0264 8.08691 25.4697 8.08691C24.9131 8.08691 24.4663 8.52637 24.4663 9.07568C24.4663 9.61768 24.9131 10.0645 25.4697 10.0645ZM24.5615 19H26.3853V11.2363H24.5615V19ZM33.0576 16.6782C32.8599 17.3228 32.2153 17.7476 31.3657 17.7476C30.1719 17.7476 29.4102 16.9126 29.4102 15.6675V15.5576H34.8374V14.9644C34.8374 12.606 33.4604 11.0752 31.2559 11.0752C29.0146 11.0752 27.5938 12.6938 27.5938 15.1475C27.5938 17.623 29 19.1538 31.3291 19.1538C33.1675 19.1538 34.5298 18.1431 34.7642 16.6782H33.0576ZM31.2632 12.4888C32.3105 12.4888 33.0137 13.2578 33.0503 14.3564H29.4248C29.498 13.2725 30.2378 12.4888 31.2632 12.4888ZM46.5195 11.2363H44.7178L43.4067 17.1982H43.3628L41.8467 11.2363H40.0962L38.5801 17.1982H38.5435L37.2324 11.2363H35.4014L37.5034 19H39.4077L40.9312 13.3237H40.9678L42.4985 19H44.4175L46.5195 11.2363ZM50.6138 8.43115V19H52.5034V15.5063H54.6421C56.7808 15.5063 58.2822 14.0781 58.2822 11.9688C58.2822 9.85938 56.8247 8.43115 54.7227 8.43115H50.6138ZM52.5034 9.97656H54.2246C55.5796 9.97656 56.3633 10.7017 56.3633 11.9688C56.3633 13.2505 55.5723 13.9829 54.2173 13.9829H52.5034V9.97656ZM59.4834 19H61.3071V14.481C61.3071 13.3896 61.9297 12.7231 62.9624 12.7231C63.27 12.7231 63.5483 12.7671 63.7021 12.8257V11.1777C63.5703 11.1484 63.3652 11.1045 63.1309 11.1045C62.2153 11.1045 61.5342 11.6465 61.2705 12.5913H61.2339V11.2363H59.4834V19ZM67.7817 19.1538C70.0596 19.1538 71.5391 17.6377 71.5391 15.1182C71.5391 12.606 70.0449 11.0752 67.7817 11.0752C65.5186 11.0752 64.0244 12.6133 64.0244 15.1182C64.0244 17.6377 65.5039 19.1538 67.7817 19.1538ZM67.7817 17.7109C66.6245 17.7109 65.8774 16.7734 65.8774 15.1182C65.8774 13.4702 66.6318 12.5254 67.7817 12.5254C68.939 12.5254 69.686 13.4702 69.686 15.1182C69.686 16.7734 68.939 17.7109 67.7817 17.7109ZM73.2163 19H75.04V12.6426H76.5635V11.2583H75.0107V10.6211C75.0107 9.99121 75.3257 9.66162 76.0215 9.66162C76.2339 9.66162 76.4463 9.68359 76.6001 9.70557V8.43115C76.373 8.38721 75.9775 8.35059 75.6187 8.35059C73.9341 8.35059 73.2163 9.06104 73.2163 10.5698V11.2583H72.1543V12.6426H73.2163V19ZM78.7168 10.0645C79.2734 10.0645 79.7129 9.61768 79.7129 9.07568C79.7129 8.52637 79.2734 8.08691 78.7168 8.08691C78.1602 8.08691 77.7134 8.52637 77.7134 9.07568C77.7134 9.61768 78.1602 10.0645 78.7168 10.0645ZM77.8086 19H79.6323V11.2363H77.8086V19ZM81.2144 19H83.0381V8.43115H81.2144V19ZM89.7324 16.6782C89.5347 17.3228 88.8901 17.7476 88.0405 17.7476C86.8467 17.7476 86.085 16.9126 86.085 15.6675V15.5576H91.5122V14.9644C91.5122 12.606 90.1353 11.0752 87.9307 11.0752C85.6895 11.0752 84.2686 12.6938 84.2686 15.1475C84.2686 17.623 85.6748 19.1538 88.0039 19.1538C89.8423 19.1538 91.2046 18.1431 91.439 16.6782H89.7324ZM87.938 12.4888C88.9854 12.4888 89.6885 13.2578 89.7251 14.3564H86.0996C86.1729 13.2725 86.9126 12.4888 87.938 12.4888Z" fill="white"/>
</svg>
