<svg width="20" height="20" viewBox="0 0 20 20" fill="none" xmlns="http://www.w3.org/2000/svg">
<path d="M14.8148 17.605L14.9729 17.1306C14.8303 17.0831 14.6738 17.1023 14.5469 17.1828L14.8148 17.605ZM17.6048 14.8151L17.1826 14.5472C17.1021 14.6741 17.0829 14.8306 17.1305 14.9732L17.6048 14.8151ZM18.9998 19L18.8417 19.4743C19.0213 19.5342 19.2194 19.4875 19.3533 19.3536C19.4872 19.2196 19.534 19.0216 19.4741 18.8419L18.9998 19ZM9.99995 19.4998C11.8685 19.4998 13.6125 18.9598 15.0826 18.0272L14.5469 17.1828C13.2323 18.0168 11.6733 18.4998 9.99995 18.4998V19.4998ZM0.5 9.99992C0.5 15.2466 4.75327 19.4998 9.99995 19.4998V18.4998C5.30555 18.4998 1.5 14.6943 1.5 9.99992H0.5ZM9.99995 0.5C4.75327 0.5 0.5 4.75326 0.5 9.99992H1.5C1.5 5.30554 5.30555 1.5 9.99995 1.5V0.5ZM19.4999 9.99992C19.4999 4.75326 15.2466 0.5 9.99995 0.5V1.5C14.6943 1.5 18.4999 5.30554 18.4999 9.99992H19.4999ZM18.027 15.083C18.9598 13.6128 19.4999 11.8687 19.4999 9.99992H18.4999C18.4999 11.6734 18.0168 13.2325 17.1826 14.5472L18.027 15.083ZM17.1305 14.9732L18.5254 19.1581L19.4741 18.8419L18.0791 14.657L17.1305 14.9732ZM19.1579 18.5257L14.9729 17.1306L14.6566 18.0793L18.8417 19.4743L19.1579 18.5257Z" fill="black"/>
</svg>
