<svg width="22" height="20" viewBox="0 0 22 20" fill="none" xmlns="http://www.w3.org/2000/svg">
<path d="M11 19.6381H10.986C8.40295 19.5901 0.949951 12.8561 0.949951 6.47812C0.949951 3.41412 3.47495 0.724121 6.35295 0.724121C8.64295 0.724121 10.183 2.30412 10.999 3.45412C11.813 2.30612 13.353 0.724121 15.644 0.724121C18.524 0.724121 21.048 3.41412 21.048 6.47912C21.048 12.8551 13.594 19.5891 11.011 19.6361H11V19.6381ZM6.35395 2.22512C4.27395 2.22512 2.45095 4.21312 2.45095 6.48012C2.45095 12.2201 9.48495 18.0761 11.001 18.1381C12.519 18.0761 19.551 12.2211 19.551 6.48012C19.551 4.21312 17.728 2.22512 15.648 2.22512C13.12 2.22512 11.708 5.16112 11.696 5.19012C11.466 5.75212 10.54 5.75212 10.309 5.19012C10.295 5.16012 8.88395 2.22512 6.35495 2.22512H6.35395Z" fill="#5A6C7B"/>
</svg>
